<svg width="122" height="32" viewBox="0 0 122 32" fill="none" xmlns="http://www.w3.org/2000/svg">
<path d="M38 0H0V9H38V0Z" fill="#3256A1"/>
<path d="M122 9H38V32H122V9Z" fill="#E82C4F"/>
<path fill-rule="evenodd" clip-rule="evenodd" d="M45.2612 15.0479H50.2032C51.5974 15.0479 52.6909 15.4599 53.4037 16.1569C53.9894 16.7583 54.3214 17.5825 54.3214 18.5491V18.5802C54.3214 20.402 53.2298 21.4954 51.6755 21.9388L54.6708 26.1369H52.3726L49.6488 22.2706H47.2098V26.1369H45.2612V15.0479ZM50.0608 20.5446C51.4549 20.5446 52.3414 19.8162 52.3414 18.6915V18.6603C52.3414 17.4711 51.4862 16.8228 50.0451 16.8228H47.2098V20.5446H50.0608Z" fill="#FFFFFE"/>
<path fill-rule="evenodd" clip-rule="evenodd" d="M57.9097 15.0479H66.2103V16.7895H59.8584V19.6737H65.4175V21.4154H59.8584V24.3932H66.2103V26.1369H57.9097V15.0479Z" fill="#FFFFFE"/>
<path fill-rule="evenodd" clip-rule="evenodd" d="M69.0579 15.0479H71.2116L74.5545 23.5711L77.8817 15.0479H79.9886L75.4079 26.1408H73.6368L69.0579 15.0479Z" fill="#FFFFFE"/>
<path fill-rule="evenodd" clip-rule="evenodd" d="M82.9059 15.0479H91.2063V16.7895H84.8545V19.6737H90.4136V21.4154H84.8545V24.3932H91.2063V26.1369H82.9059V15.0479Z" fill="#FFFFFE"/>
<path fill-rule="evenodd" clip-rule="evenodd" d="M104.149 20.6234V20.5923C104.149 17.472 106.557 14.8574 109.962 14.8574C113.367 14.8574 115.744 17.4388 115.744 20.561V20.5923C115.744 23.7125 113.336 26.3251 109.931 26.3251C106.525 26.3251 104.149 23.7439 104.149 20.6234ZM113.701 20.6234V20.5923C113.701 18.4385 112.133 16.648 109.931 16.648C107.728 16.648 106.193 18.4053 106.193 20.561V20.5923C106.193 22.746 107.761 24.5365 109.962 24.5365C112.165 24.5365 113.701 22.7773 113.701 20.6234Z" fill="#FFFFFE"/>
<path fill-rule="evenodd" clip-rule="evenodd" d="M96.4017 26.1372H102.232V24.3623H96.4017V26.1372Z" fill="#FFFFFE"/>
<path fill-rule="evenodd" clip-rule="evenodd" d="M94.4531 24.363H96.3999V15.0488H94.4531V24.363Z" fill="#FFFFFE"/>
</svg>
